<svg width="10000" height="10000" viewBox="0 0 10000 10000" fill="none" xmlns="http://www.w3.org/2000/svg">
<g clip-path="url(#clip0_2118_2953)">
<rect width="10000" height="10000" fill="#34373c"/>
<path d="M-6586 2813.48C-6400.68 2668.4 -5639.96 3640.06 -5454.54 3494.89C-5269.13 3349.73 -6029.95 2378.15 -5844.54 2232.98C-5659.12 2087.82 -4898.5 3059.56 -4713.08 2914.39C-4527.67 2769.23 -5288.49 1797.65 -5103.08 1652.48C-4917.66 1507.32 -4157.03 2479.06 -3971.62 2333.89C-3786.2 2188.73 -4547.03 1217.15 -4361.62 1071.98C-4176.2 926.817 -3415.57 1898.55 -3230.16 1753.39C-3044.74 1608.23 -3805.57 636.644 -3620.25 491.558C-3434.94 346.471 -2674.11 1318.05 -2488.4 1172.66C-2302.69 1027.26 -3063.81 55.9098 -2878.49 -89.1766C-2693.18 -234.263 -1932.25 737.242 -1747.33 592.466C-1562.42 447.691 -2322.75 -524.28 -2136.83 -669.833C-1950.92 -815.386 -1190.79 156.74 -1005.48 11.654C-820.16 -133.432 -1580.79 -1105.17 -1395.47 -1250.26C-1210.16 -1395.34 -449.43 -423.683 -264.015 -568.847C-78.5998 -714.011 -839.426 -1685.59 -654.11 -1830.68C-468.795 -1975.77 292.032 -1004.18 477.447 -1149.35C662.862 -1294.51 -97.9647 -2266.09 87.4503 -2411.26C272.865 -2556.42 1033.49 -1584.68 1218.91 -1729.85C1404.32 -1875.01 643.497 -2846.6 828.912 -2991.76C1014.33 -3136.92 1774.95 -2165.19 1960.37 -2310.35C2145.78 -2455.51 1384.96 -3427.1 1570.37 -3572.26C1755.79 -3717.43 2516.42 -2745.69 2701.83 -2890.85C2887.25 -3036.02 2126.52 -4007.68 2311.83 -4152.76C2497.15 -4297.85 3257.98 -3326.27 3443.29 -3471.35C3628.61 -3616.44 2867.98 -4588.18 3053.3 -4733.26C3238.61 -4878.35 3999.44 -3906.77 4184.85 -4051.93C4370.27 -4197.1 3609.44 -5168.68 3794.86 -5313.84C3980.27 -5459.01 4741 -4487.35 4926.31 -4632.43C5111.63 -4777.52 4351 -5749.26 4536.42 -5894.42C4721.83 -6039.58 5482.56 -5067.93 5667.97 -5213.09C5853.39 -5358.25 5092.66 -6329.91 5277.98 -6475" stroke="#A0A3BD" stroke-width="10" stroke-miterlimit="10"/>
<path d="M-5024.61 4807.82C-4839.29 4662.74 -4078.57 5634.4 -3893.15 5489.23C-3707.74 5344.07 -4468.56 4372.49 -4283.15 4227.32C-4097.73 4082.16 -3337.11 5053.9 -3151.69 4908.73C-2966.28 4763.57 -3727.1 3791.99 -3541.69 3646.82C-3356.27 3501.66 -2595.64 4473.4 -2410.23 4328.23C-2224.81 4183.07 -2985.64 3211.49 -2800.23 3066.32C-2614.81 2921.16 -1854.18 3892.89 -1668.77 3747.73C-1483.35 3602.57 -2244.18 2630.98 -2058.86 2485.9C-1873.55 2340.81 -1112.72 3312.39 -927.008 3167C-741.295 3021.6 -1502.42 2050.25 -1317.1 1905.16C-1131.79 1760.08 -370.863 2731.58 -185.944 2586.81C-1.02568 2442.03 -761.355 1470.06 -575.444 1324.51C-389.532 1178.95 370.599 2151.08 555.915 2005.99C741.23 1860.91 -19.397 889.17 165.919 744.083C351.234 598.997 1111.96 1570.66 1297.38 1425.49C1482.79 1280.33 721.965 308.747 907.28 163.66C1092.6 18.5738 1853.42 990.156 2038.84 844.992C2224.25 699.827 1463.43 -271.754 1648.84 -416.918C1834.26 -562.083 2594.88 409.655 2780.3 264.491C2965.71 119.327 2204.89 -852.256 2390.3 -997.42C2575.72 -1142.58 3336.34 -170.846 3521.76 -316.01C3707.17 -461.174 2946.35 -1432.76 3131.76 -1577.92C3317.18 -1723.09 4077.81 -751.347 4263.22 -896.511C4448.64 -1041.68 3687.91 -2013.34 3873.23 -2158.42C4058.54 -2303.51 4819.37 -1331.93 5004.68 -1477.01C5190 -1622.1 4429.37 -2593.84 4614.69 -2738.92C4800 -2884.01 5560.83 -1912.43 5746.24 -2057.59C5931.66 -2202.76 5170.83 -3174.34 5356.25 -3319.5C5541.66 -3464.67 6302.39 -2493.01 6487.7 -2638.09C6673.02 -2783.18 5912.39 -3754.92 6097.81 -3900.08C6283.22 -4045.24 7043.95 -3073.59 7229.37 -3218.75C7414.78 -3363.91 6654.05 -4335.57 6839.37 -4480.66" stroke="#A0A3BD" stroke-width="7" stroke-miterlimit="10"/>
<path d="M-2281.72 8311.25C-2096.4 8166.17 -1335.68 9137.83 -1150.26 8992.66C-964.846 8847.5 -1725.67 7875.92 -1540.26 7730.75C-1354.84 7585.59 -594.215 8557.33 -408.8 8412.16C-223.385 8267 -984.211 7295.42 -798.796 7150.25C-613.381 7005.09 147.247 7976.83 332.662 7831.66C518.077 7686.5 -242.75 6714.91 -57.3346 6569.75C128.08 6424.59 888.708 7396.32 1074.12 7251.16C1259.54 7106 498.712 6134.41 684.028 5989.33C869.343 5844.24 1630.17 6815.82 1815.88 6670.43C2001.6 6525.03 1240.47 5553.68 1425.79 5408.59C1611.1 5263.51 2372.03 6235.01 2556.95 6090.24C2741.86 5945.46 1981.54 4973.49 2167.45 4827.94C2353.36 4682.38 3113.49 5654.51 3298.81 5509.42C3484.12 5364.34 2723.49 4392.6 2908.81 4247.51C3094.12 4102.43 3854.85 5074.09 4040.27 4928.92C4225.68 4783.76 3464.86 3812.18 3650.17 3667.09C3835.49 3522 4596.31 4493.59 4781.73 4348.42C4967.14 4203.26 4206.32 3231.68 4391.73 3086.51C4577.15 2941.35 5337.77 3913.08 5523.19 3767.92C5708.6 3622.76 4947.78 2651.17 5133.19 2506.01C5318.61 2360.85 6079.24 3332.58 6264.65 3187.42C6450.07 3042.26 5689.24 2070.67 5874.66 1925.51C6060.07 1780.34 6820.7 2752.08 7006.11 2606.92C7191.53 2461.75 6430.8 1490.09 6616.12 1345.01C6801.43 1199.92 7562.26 2171.5 7747.57 2026.42C7932.89 1881.33 7172.26 909.593 7357.58 764.507C7542.89 619.42 8303.72 1591 8489.13 1445.84C8674.55 1300.67 7913.72 329.092 8099.14 183.928C8284.55 38.7635 9045.28 1010.42 9230.6 865.337C9415.91 720.251 8655.28 -251.486 8840.7 -396.651C9026.11 -541.815 9786.84 429.844 9972.26 284.68C10157.7 139.516 9396.94 -832.143 9582.26 -977.23" stroke="#A0A3BD" stroke-width="7" stroke-miterlimit="10"/>
<path d="M1642.67 13323.8C1827.98 13178.7 2588.71 14150.4 2774.13 14005.2C2959.54 13860 2198.71 12888.4 2384.13 12743.3C2569.54 12598.1 3330.17 13569.9 3515.59 13424.7C3701 13279.5 2940.18 12307.9 3125.59 12162.8C3311.01 12017.6 4071.63 12989.4 4257.05 12844.2C4442.46 12699 3681.64 11727.4 3867.05 11582.3C4052.47 11437.1 4813.09 12408.9 4998.51 12263.7C5183.92 12118.5 4423.1 11146.9 4608.41 11001.9C4793.73 10856.8 5554.56 11828.4 5740.27 11683C5925.98 11537.6 5164.86 10566.2 5350.17 10421.1C5535.49 10276 6296.41 11247.5 6481.33 11102.8C6666.25 10958 5905.92 9986.02 6091.83 9840.46C6277.75 9694.91 7037.88 10667 7223.19 10522C7408.51 10376.9 6647.88 9405.13 6833.2 9260.04C7018.51 9114.95 7779.24 10086.6 7964.65 9941.45C8150.07 9796.29 7389.24 8824.7 7574.56 8679.62C7759.87 8534.53 8520.7 9506.11 8706.11 9360.95C8891.53 9215.78 8130.7 8244.2 8316.12 8099.04C8501.53 7953.87 9262.16 8925.61 9447.58 8780.45C9632.99 8635.28 8872.17 7663.7 9057.58 7518.54C9243 7373.37 10003.6 8345.11 10189 8199.95C10374.5 8054.78 9613.63 7083.2 9799.04 6938.04C9984.46 6792.87 10745.1 7764.61 10930.5 7619.45C11115.9 7474.28 10355.2 6502.62 10540.5 6357.54C10725.8 6212.45 11486.6 7184.03 11672 7038.94C11857.3 6893.86 11096.6 5922.12 11282 5777.03C11467.3 5631.95 12228.1 6603.53 12413.5 6458.37C12598.9 6313.2 11838.1 5341.62 12023.5 5196.45C12208.9 5051.29 12969.7 6022.95 13155 5877.86C13340.3 5732.78 12579.7 4761.04 12765.1 4615.88C12950.5 4470.71 13711.2 5442.37 13896.6 5297.21C14082.1 5152.04 13321.3 4180.38 13506.6 4035.3" stroke="#A0A3BD" stroke-width="7" stroke-miterlimit="10"/>
<path d="M-5825.27 3785.14C-5639.95 3640.06 -4879.23 4611.72 -4693.81 4466.55C-4508.4 4321.39 -5269.22 3349.81 -5083.81 3204.64C-4898.39 3059.48 -4137.77 4031.22 -3952.35 3886.05C-3766.94 3740.89 -4527.76 2769.31 -4342.35 2624.14C-4156.93 2478.98 -3396.3 3450.72 -3210.89 3305.55C-3025.47 3160.39 -3786.3 2188.81 -3600.89 2043.64C-3415.47 1898.48 -2654.84 2870.21 -2469.43 2725.05C-2284.01 2579.89 -3044.84 1608.3 -2859.52 1463.22C-2674.21 1318.13 -1913.38 2289.71 -1727.67 2144.32C-1541.96 1998.92 -2303.08 1027.57 -2117.76 882.484C-1932.45 737.397 -1171.52 1708.9 -986.604 1564.13C-801.686 1419.35 -1562.02 447.38 -1376.1 301.827C-1190.19 156.274 -430.061 1128.4 -244.746 983.314C-59.4298 838.228 -820.057 -133.51 -634.741 -278.596C-449.426 -423.683 311.301 547.977 496.716 402.813C682.131 257.649 -78.6955 -713.933 106.62 -859.019C291.936 -1004.11 1052.76 -32.5239 1238.18 -177.688C1423.59 -322.852 662.766 -1294.43 848.181 -1439.6C1033.6 -1584.76 1794.22 -613.025 1979.64 -758.189C2165.05 -903.353 1404.23 -1874.94 1589.64 -2020.1C1775.06 -2165.26 2535.68 -1193.53 2721.1 -1338.69C2906.51 -1483.85 2145.69 -2455.44 2331.1 -2600.6C2516.52 -2745.76 3277.15 -1774.03 3462.56 -1919.19C3647.98 -2064.36 2887.25 -3036.02 3072.57 -3181.1C3257.88 -3326.19 4018.71 -2354.61 4204.02 -2499.69C4389.34 -2644.78 3628.71 -3616.52 3814.03 -3761.6C3999.34 -3906.69 4760.17 -2935.11 4945.58 -3080.27C5131 -3225.44 4370.17 -4197.02 4555.59 -4342.18C4741 -4487.35 5501.73 -3515.69 5687.04 -3660.77C5872.36 -3805.86 5111.73 -4777.6 5297.15 -4922.76C5482.56 -5067.92 6243.29 -4096.26 6428.71 -4241.43C6614.12 -4386.59 5853.39 -5358.25 6038.71 -5503.34" stroke="#A0A3BD" stroke-width="7" stroke-miterlimit="10"/>
<path d="M-3082.39 7288.58C-2897.07 7143.49 -2136.34 8115.15 -1950.93 7969.99C-1765.51 7824.82 -2526.34 6853.24 -2340.93 6708.08C-2155.51 6562.91 -1394.88 7534.65 -1209.47 7389.49C-1024.05 7244.32 -1784.88 6272.74 -1599.46 6127.58C-1414.05 5982.41 -653.421 6954.15 -468.006 6808.99C-282.591 6663.82 -1043.42 5692.24 -858.003 5547.07C-672.588 5401.91 88.04 6373.65 273.455 6228.48C458.87 6083.32 -301.956 5111.74 -116.64 4966.65C68.6753 4821.57 829.501 5793.15 1015.21 5647.75C1200.93 5502.35 439.803 4531 625.119 4385.92C810.435 4240.83 1571.36 5212.34 1756.28 5067.56C1941.2 4922.78 1180.87 3950.81 1366.78 3805.26C1552.69 3659.71 2312.82 4631.83 2498.14 4486.75C2683.45 4341.66 1922.83 3369.92 2108.14 3224.84C2293.46 3079.75 3054.18 4051.41 3239.6 3906.25C3425.01 3761.08 2664.19 2789.5 2849.5 2644.41C3034.82 2499.33 3795.65 3470.91 3981.06 3325.75C4166.48 3180.58 3405.65 2209 3591.06 2063.84C3776.48 1918.67 4537.11 2890.41 4722.52 2745.24C4907.94 2600.08 4147.11 1628.5 4332.53 1483.33C4517.94 1338.17 5278.57 2309.91 5463.98 2164.74C5649.4 2019.58 4888.57 1048 5073.99 902.833C5259.4 757.669 6020.03 1729.41 6205.44 1584.24C6390.86 1439.08 5630.13 467.418 5815.45 322.332C6000.76 177.245 6761.59 1148.83 6946.91 1003.74C7132.22 858.655 6371.59 -113.083 6556.91 -258.169C6742.23 -403.255 7503.05 568.327 7688.47 423.162C7873.88 277.998 7113.06 -693.584 7298.47 -838.748C7483.89 -983.912 8244.61 -12.2521 8429.93 -157.338C8615.24 -302.425 7854.62 -1274.16 8040.03 -1419.33C8225.45 -1564.49 8986.17 -592.831 9171.59 -737.995C9357 -883.16 8596.28 -1854.82 8781.59 -1999.91" stroke="#A0A3BD" stroke-width="7" stroke-miterlimit="10"/>
<path d="M842 12301.1C1027.32 12156 1788.04 13127.7 1973.46 12982.5C2158.87 12837.4 1398.05 11865.8 1583.46 11720.6C1768.88 11575.5 2529.5 12547.2 2714.92 12402C2900.33 12256.9 2139.51 11285.3 2324.92 11140.1C2510.34 10995 3270.97 11966.7 3456.38 11821.5C3641.8 11676.4 2880.97 10704.8 3066.38 10559.6C3251.8 10414.4 4012.43 11386.2 4197.84 11241C4383.26 11095.9 3622.43 10124.3 3807.75 9979.19C3993.06 9834.1 4753.89 10805.7 4939.6 10660.3C5125.31 10514.9 4364.19 9543.54 4549.51 9398.46C4734.82 9253.37 5495.75 10224.9 5680.67 10080.1C5865.58 9935.32 5105.25 8963.35 5291.17 8817.8C5477.08 8672.25 6237.21 9644.37 6422.52 9499.29C6607.84 9354.2 5847.21 8382.46 6032.53 8237.38C6217.84 8092.29 6978.57 9063.95 7163.99 8918.79C7349.4 8773.62 6588.57 7802.04 6773.89 7656.95C6959.21 7511.87 7720.03 8483.45 7905.45 8338.28C8090.86 8193.12 7330.04 7221.54 7515.45 7076.37C7700.87 6931.21 8461.49 7902.95 8646.91 7757.78C8832.32 7612.62 8071.5 6641.04 8256.91 6495.87C8442.33 6350.71 9202.95 7322.45 9388.37 7177.28C9573.78 7032.12 8812.96 6060.54 8998.37 5915.37C9183.79 5770.21 9944.42 6741.95 10129.8 6596.78C10315.2 6451.62 9554.52 5479.96 9739.83 5334.87C9925.15 5189.78 10686 6161.37 10871.3 6016.28C11056.6 5871.19 10296 4899.46 10481.3 4754.37C10666.6 4609.28 11427.4 5580.87 11612.9 5435.7C11798.3 5290.54 11037.4 4318.96 11222.9 4173.79C11408.3 4028.63 12169 5000.29 12354.3 4855.2C12539.6 4710.11 11779 3738.38 11964.4 3593.21C12149.8 3448.05 12910.6 4419.71 13096 4274.54C13281.4 4129.38 12520.7 3157.72 12706 3012.63" stroke="#A0A3BD" stroke-width="7" stroke-miterlimit="10"/>
<path d="M-4263.88 5779.48C-4078.56 5634.4 -3317.84 6606.06 -3132.42 6460.89C-2947.01 6315.73 -3707.83 5344.15 -3522.42 5198.98C-3337 5053.82 -2576.38 6025.56 -2390.96 5880.39C-2205.55 5735.23 -2966.37 4763.65 -2780.96 4618.48C-2595.54 4473.32 -1834.91 5445.06 -1649.5 5299.89C-1464.08 5154.73 -2224.91 4183.15 -2039.49 4037.98C-1854.08 3892.82 -1093.45 4864.55 -908.037 4719.39C-722.622 4574.23 -1483.45 3602.64 -1298.13 3457.56C-1112.82 3312.47 -351.991 4284.05 -166.278 4138.66C19.4352 3993.26 -741.689 3021.91 -556.373 2876.82C-371.057 2731.74 389.868 3703.24 574.786 3558.47C759.705 3413.69 -0.624769 2441.72 185.287 2296.17C371.198 2150.61 1131.33 3122.74 1316.65 2977.65C1501.96 2832.57 741.333 1860.83 926.649 1715.74C1111.96 1570.66 1872.69 2542.32 2058.11 2397.15C2243.52 2251.99 1482.7 1280.41 1668.01 1135.32C1853.33 990.234 2614.15 1961.82 2799.57 1816.65C2984.98 1671.49 2224.16 699.906 2409.57 554.742C2594.99 409.578 3355.61 1381.32 3541.03 1236.15C3726.44 1090.99 2965.62 119.404 3151.03 -25.7597C3336.45 -170.924 4097.08 800.814 4282.49 655.65C4467.91 510.486 3707.08 -461.097 3892.49 -606.261C4077.91 -751.425 4838.54 220.313 5023.95 75.1487C5209.37 -70.0155 4448.64 -1041.68 4633.96 -1186.76C4819.27 -1331.85 5580.1 -360.266 5765.41 -505.353C5950.73 -650.439 5190.1 -1622.18 5375.42 -1767.26C5560.73 -1912.35 6321.56 -940.767 6506.97 -1085.93C6692.39 -1231.1 5931.56 -2202.68 6116.98 -2347.84C6302.39 -2493.01 7063.12 -1521.35 7248.44 -1666.43C7433.75 -1811.52 6673.12 -2783.26 6858.54 -2928.42C7043.95 -3073.58 7804.68 -2101.93 7990.1 -2247.09C8175.51 -2392.25 7414.78 -3363.91 7600.1 -3509" stroke="#A0A3BD" stroke-width="7" stroke-miterlimit="10"/>
<path d="M-339.492 10792C-154.176 10646.9 606.55 11618.6 791.965 11473.4C977.38 11328.3 216.554 10356.7 401.969 10211.5C587.384 10066.3 1348.01 11038.1 1533.43 10892.9C1718.84 10747.8 958.016 9776.17 1143.43 9631.01C1328.85 9485.84 2089.47 10457.6 2274.89 10312.4C2460.3 10167.3 1699.48 9195.67 1884.89 9050.5C2070.31 8905.34 2830.93 9877.08 3016.35 9731.91C3201.76 9586.75 2440.94 8615.17 2626.25 8470.08C2811.57 8324.99 3572.4 9296.58 3758.11 9151.18C3943.82 9005.78 3182.7 8034.43 3368.01 7889.35C3553.33 7744.26 4314.25 8715.76 4499.17 8570.99C4684.09 8426.21 3923.76 7454.24 4109.67 7308.69C4295.59 7163.14 5055.72 8135.26 5241.03 7990.18C5426.35 7845.09 4665.72 6873.35 4851.04 6728.27C5036.35 6583.18 5797.08 7554.84 5982.49 7409.68C6167.91 7264.51 5407.08 6292.93 5592.4 6147.84C5777.71 6002.76 6538.54 6974.34 6723.95 6829.18C6909.37 6684.01 6148.54 5712.43 6333.96 5567.27C6519.37 5422.1 7280 6393.84 7465.42 6248.67C7650.83 6103.51 6890 5131.93 7075.42 4986.76C7260.83 4841.6 8021.46 5813.34 8206.88 5668.17C8392.29 5523.01 7631.47 4551.43 7816.88 4406.26C8002.3 4261.1 8762.92 5232.84 8948.34 5087.67C9133.75 4942.51 8373.03 3970.85 8558.34 3825.76C8743.66 3680.68 9504.48 4652.26 9689.8 4507.17C9875.12 4362.08 9114.49 3390.35 9299.8 3245.26C9485.12 3100.17 10245.9 4071.76 10431.4 3926.59C10616.8 3781.43 9855.95 2809.85 10041.4 2664.68C10226.8 2519.52 10987.5 3491.18 11172.8 3346.09C11358.1 3201 10597.5 2229.27 10782.9 2084.1C10968.3 1938.94 11729.1 2910.6 11914.5 2765.43C12099.9 2620.27 11339.2 1648.61 11524.5 1503.52" stroke="#A0A3BD" stroke-width="7" stroke-miterlimit="10"/>
<path d="M-1520.99 9282.91C-1335.67 9137.83 -574.946 10109.5 -389.531 9964.32C-204.116 9819.16 -964.942 8847.58 -779.527 8702.41C-594.112 8557.25 166.516 9528.99 351.931 9383.82C537.346 9238.66 -223.48 8267.08 -38.0654 8121.91C147.35 7976.75 907.977 8948.49 1093.39 8803.32C1278.81 8658.16 517.981 7686.58 703.396 7541.41C888.811 7396.25 1649.44 8367.98 1834.85 8222.82C2020.27 8077.66 1259.44 7106.07 1444.76 6960.99C1630.07 6815.9 2390.9 7787.48 2576.61 7642.09C2762.33 7496.69 2001.2 6525.34 2186.52 6380.25C2371.83 6235.17 3132.76 7206.67 3317.68 7061.9C3502.6 6917.12 2742.27 5945.15 2928.18 5799.6C3114.09 5654.04 3874.22 6626.17 4059.54 6481.08C4244.85 6336 3484.22 5364.26 3669.54 5219.17C3854.86 5074.09 4615.58 6045.75 4801 5900.58C4986.41 5755.42 4225.59 4783.84 4410.9 4638.75C4596.22 4493.66 5357.04 5465.25 5542.46 5320.08C5727.87 5174.92 4967.05 4203.34 5152.46 4058.17C5337.88 3913.01 6098.5 4884.74 6283.92 4739.58C6469.33 4594.42 5708.51 3622.83 5893.92 3477.67C6079.34 3332.51 6839.97 4304.24 7025.38 4159.08C7210.8 4013.92 6449.97 3042.33 6635.39 2897.17C6820.8 2752 7581.43 3723.74 7766.84 3578.58C7952.26 3433.41 7191.53 2461.75 7376.85 2316.67C7562.16 2171.58 8322.99 3143.16 8508.3 2998.08C8693.62 2852.99 7932.99 1881.25 8118.31 1736.17C8303.62 1591.08 9064.45 2562.66 9249.86 2417.5C9435.28 2272.33 8674.45 1300.75 8859.87 1155.59C9045.28 1010.42 9806.01 1982.08 9991.33 1837C10176.6 1691.91 9416.01 720.174 9601.43 575.01C9786.84 429.845 10547.6 1401.5 10733 1256.34C10918.4 1111.18 10157.7 139.517 10343 -5.5696" stroke="#A0A3BD" stroke-width="7" stroke-miterlimit="10"/>
<path d="M2403.39 14295.4C2588.71 14150.4 3349.44 15122 3534.85 14976.9C3720.27 14831.7 2959.44 13860.1 3144.86 13714.9C3330.27 13569.8 4090.9 14541.5 4276.31 14396.4C4461.73 14251.2 3700.9 13279.6 3886.32 13134.4C4071.73 12989.3 4832.36 13961 5017.77 13815.9C5203.19 13670.7 4442.36 12699.1 4627.78 12553.9C4813.19 12408.8 5573.82 13380.5 5759.24 13235.4C5944.65 13090.2 5183.83 12118.6 5369.14 11973.5C5554.46 11828.4 6315.28 12800 6501 12654.6C6686.71 12509.2 5925.58 11537.9 6110.9 11392.8C6296.22 11247.7 7057.14 12219.2 7242.06 12074.4C7426.98 11929.7 6666.65 10957.7 6852.56 10812.1C7038.47 10666.6 7798.6 11638.7 7983.92 11493.6C8169.23 11348.5 7408.61 10376.8 7593.92 10231.7C7779.24 10086.6 8539.96 11058.3 8725.38 10913.1C8910.79 10767.9 8149.97 9796.37 8335.28 9651.28C8520.6 9506.19 9281.43 10477.8 9466.84 10332.6C9652.26 10187.4 8891.43 9215.87 9076.84 9070.7C9262.26 8925.54 10022.9 9897.28 10208.3 9752.11C10393.7 9606.95 9632.89 8635.37 9818.31 8490.2C10003.7 8345.04 10764.3 9316.78 10949.8 9171.61C11135.2 9026.45 10374.4 8054.86 10559.8 7909.7C10745.2 7764.54 11505.8 8736.27 11691.2 8591.11C11876.6 8445.95 11115.9 7474.29 11301.2 7329.2C11486.5 7184.11 12247.4 8155.69 12432.7 8010.61C12618 7865.52 11857.4 6893.78 12042.7 6748.7C12228 6603.61 12988.8 7575.19 13174.2 7430.03C13359.7 7284.87 12598.8 6313.28 12784.3 6168.12C12969.7 6022.95 13730.4 6994.62 13915.7 6849.53C14101 6704.44 13340.4 5732.7 13525.8 5587.54C13711.2 5442.38 14472 6414.04 14657.4 6268.87C14842.8 6123.71 14082.1 5152.05 14267.4 5006.96" stroke="#A0A3BD" stroke-width="7" stroke-miterlimit="10"/>
<path d="M-6206.1 3298.72C-6020.79 3153.64 -5260.06 4125.3 -5074.64 3980.13C-4889.23 3834.97 -5650.06 2863.39 -5464.64 2718.22C-5279.23 2573.06 -4518.6 3544.8 -4333.18 3399.63C-4147.77 3254.47 -4908.59 2282.88 -4723.18 2137.72C-4537.76 1992.56 -3777.14 2964.29 -3591.72 2819.13C-3406.31 2673.97 -4167.13 1702.38 -3981.72 1557.22C-3796.3 1412.06 -3035.67 2383.79 -2850.26 2238.63C-2664.84 2093.46 -3425.67 1121.88 -3240.36 976.796C-3055.04 831.71 -2294.21 1803.29 -2108.5 1657.89C-1922.79 1512.5 -2683.91 541.148 -2498.6 396.062C-2313.28 250.975 -1552.35 1222.48 -1367.44 1077.7C-1182.52 932.929 -1942.85 -39.0419 -1756.94 -184.595C-1571.02 -330.148 -810.893 641.979 -625.578 496.892C-440.262 351.806 -1200.89 -619.932 -1015.57 -765.018C-830.258 -910.105 -69.5314 61.5555 115.884 -83.6086C301.299 -228.773 -459.527 -1200.35 -274.212 -1345.44C-88.8961 -1490.53 671.93 -518.946 857.345 -664.11C1042.76 -809.274 281.934 -1780.86 467.349 -1926.02C652.764 -2071.18 1413.39 -1099.45 1598.81 -1244.61C1784.22 -1389.77 1023.4 -2361.36 1208.81 -2506.52C1394.23 -2651.69 2154.85 -1679.95 2340.27 -1825.11C2525.68 -1970.28 1764.86 -2941.86 1950.27 -3087.02C2135.69 -3232.19 2896.31 -2260.45 3081.73 -2405.61C3267.14 -2550.78 2506.42 -3522.44 2691.73 -3667.52C2877.05 -3812.61 3637.88 -2841.03 3823.19 -2986.11C4008.51 -3131.2 3247.88 -4102.94 3433.19 -4248.02C3618.51 -4393.11 4379.34 -3421.53 4564.75 -3566.69C4750.17 -3711.86 3989.34 -4683.44 4174.76 -4828.6C4360.17 -4973.77 5120.9 -4002.11 5306.21 -4147.19C5491.53 -4292.28 4730.9 -5264.02 4916.32 -5409.18C5101.73 -5554.35 5862.46 -4582.69 6047.87 -4727.85C6233.29 -4873.02 5472.56 -5844.67 5657.88 -5989.76" stroke="#A0A3BD" stroke-width="10" stroke-miterlimit="10"/>
<path d="M-3463.21 6802.16C-3277.9 6657.07 -2517.17 7628.73 -2331.75 7483.57C-2146.34 7338.4 -2907.16 6366.82 -2721.75 6221.66C-2536.33 6076.49 -1775.71 7048.23 -1590.29 6903.06C-1404.88 6757.9 -2165.7 5786.32 -1980.29 5641.15C-1794.87 5495.99 -1034.25 6467.73 -848.831 6322.56C-663.416 6177.4 -1424.24 5205.82 -1238.83 5060.65C-1053.41 4915.49 -292.784 5887.23 -107.369 5742.06C78.0458 5596.9 -682.78 4625.32 -497.465 4480.23C-312.149 4335.14 448.677 5306.73 634.39 5161.33C820.103 5015.93 58.9791 4044.58 244.295 3899.5C429.61 3754.41 1190.54 4725.91 1375.45 4581.14C1560.37 4436.36 800.043 3464.39 985.955 3318.84C1171.87 3173.29 1932 4145.41 2117.31 4000.33C2302.63 3855.24 1542 2883.5 1727.32 2738.42C1912.63 2593.33 2673.36 3564.99 2858.77 3419.82C3044.19 3274.66 2283.36 2303.08 2468.68 2157.99C2653.99 2012.91 3414.82 2984.49 3600.24 2839.32C3785.65 2694.16 3024.82 1722.58 3210.24 1577.41C3395.65 1432.25 4156.28 2403.99 4341.7 2258.82C4527.11 2113.66 3766.29 1142.08 3951.7 996.912C4137.12 851.748 4897.74 1823.49 5083.16 1678.32C5268.57 1533.16 4507.75 561.575 4693.16 416.411C4878.58 271.247 5639.2 1242.98 5824.62 1097.82C6010.04 952.656 5249.31 -19.0036 5434.62 -164.09C5619.94 -309.176 6380.77 662.406 6566.08 517.319C6751.4 372.233 5990.77 -599.504 6176.09 -744.591C6361.4 -889.677 7122.23 81.9047 7307.64 -63.2595C7493.06 -208.424 6732.23 -1180.01 6917.65 -1325.17C7103.06 -1470.33 7863.79 -498.674 8049.1 -643.76C8234.42 -788.847 7473.79 -1760.58 7659.21 -1905.75C7844.62 -2050.91 8605.35 -1079.25 8790.76 -1224.42C8976.18 -1369.58 8215.45 -2341.24 8400.77 -2486.33" stroke="#A0A3BD" stroke-width="7" stroke-miterlimit="10"/>
<path d="M461.176 11814.7C646.491 11669.6 1407.22 12641.3 1592.63 12496.1C1778.05 12350.9 1017.22 11379.4 1202.64 11234.2C1388.05 11089 2148.68 12060.8 2334.09 11915.6C2519.51 11770.4 1758.68 10798.8 1944.1 10653.7C2129.51 10508.5 2890.14 11480.3 3075.56 11335.1C3260.97 11189.9 2500.14 10218.3 2685.56 10073.2C2870.97 9928.02 3631.6 10899.8 3817.02 10754.6C4002.43 10609.4 3241.61 9637.85 3426.92 9492.76C3612.24 9347.67 4373.06 10319.3 4558.78 10173.9C4744.49 10028.5 3983.37 9057.11 4168.68 8912.03C4354 8766.94 5114.92 9738.44 5299.84 9593.67C5484.76 9448.89 4724.43 8476.92 4910.34 8331.37C5096.25 8185.82 5856.38 9157.94 6041.7 9012.86C6227.02 8867.77 5466.39 7896.03 5651.7 7750.95C5837.02 7605.86 6597.75 8577.52 6783.16 8432.36C6968.58 8287.19 6207.75 7315.61 6393.07 7170.52C6578.38 7025.44 7339.21 7997.02 7524.62 7851.85C7710.04 7706.69 6949.21 6735.11 7134.63 6589.94C7320.04 6444.78 8080.67 7416.52 8266.08 7271.35C8451.5 7126.19 7690.67 6154.61 7876.09 6009.44C8061.5 5864.28 8822.13 6836.02 9007.54 6690.85C9192.96 6545.69 8432.13 5574.11 8617.55 5428.94C8802.96 5283.78 9563.59 6255.52 9749.01 6110.35C9934.42 5965.19 9173.7 4993.53 9359.01 4848.44C9544.33 4703.35 10305.2 5674.94 10490.5 5529.85C10675.8 5384.76 9915.16 4413.03 10100.5 4267.94C10285.8 4122.85 11046.6 5094.44 11232 4949.27C11417.4 4804.11 10656.6 3832.53 10842 3687.36C11027.4 3542.2 11788.2 4513.86 11973.5 4368.77C12158.8 4223.68 11398.2 3251.95 11583.6 3106.78C11769 2961.62 12529.7 3933.28 12715.2 3788.11C12900.6 3642.95 12139.8 2671.29 12325.2 2526.2" stroke="#A0A3BD" stroke-width="7" stroke-miterlimit="10"/>
<path d="M-4644.7 5293.06C-4459.39 5147.98 -3698.66 6119.64 -3513.25 5974.47C-3327.83 5829.31 -4088.66 4857.73 -3903.24 4712.56C-3717.83 4567.4 -2957.2 5539.13 -2771.78 5393.97C-2586.37 5248.81 -3347.2 4277.22 -3161.78 4132.06C-2976.37 3986.9 -2215.74 4958.63 -2030.32 4813.47C-1844.91 4668.31 -2605.73 3696.72 -2420.32 3551.56C-2234.9 3406.4 -1474.28 4378.13 -1288.86 4232.97C-1103.45 4087.8 -1864.27 3116.22 -1678.96 2971.14C-1493.64 2826.05 -732.815 3797.63 -547.102 3652.23C-361.389 3506.84 -1122.51 2535.49 -937.197 2390.4C-751.882 2245.32 9.04365 3216.82 193.962 3072.04C378.881 2927.27 -381.449 1955.3 -195.537 1809.75C-9.62587 1664.19 750.505 2636.32 935.821 2491.23C1121.14 2346.15 360.509 1374.41 545.825 1229.32C731.141 1084.24 1491.87 2055.9 1677.28 1910.73C1862.7 1765.57 1101.87 793.985 1287.19 648.898C1472.5 503.812 2233.33 1475.39 2418.74 1330.23C2604.16 1185.07 1843.33 213.484 2028.75 68.3198C2214.16 -76.8443 2974.79 894.893 3160.2 749.729C3345.62 604.565 2584.79 -367.017 2770.21 -512.182C2955.62 -657.346 3716.25 314.392 3901.67 169.228C4087.08 24.064 3326.26 -947.519 3511.67 -1092.68C3697.09 -1237.85 4457.71 -266.109 4643.13 -411.273C4828.54 -556.437 4067.82 -1528.1 4253.13 -1673.18C4438.45 -1818.27 5199.27 -846.688 5384.59 -991.775C5569.91 -1136.86 4809.28 -2108.6 4994.59 -2253.68C5179.91 -2398.77 5940.74 -1427.19 6126.15 -1572.35C6311.57 -1717.52 5550.74 -2689.1 5736.15 -2834.26C5921.57 -2979.43 6682.3 -2007.77 6867.61 -2152.85C7052.93 -2297.94 6292.3 -3269.68 6477.71 -3414.84C6663.13 -3560.01 7423.86 -2588.35 7609.27 -2733.51C7794.69 -2878.68 7033.96 -3850.33 7219.28 -3995.42" stroke="#A0A3BD" stroke-width="7" stroke-miterlimit="10"/>
<path d="M-720.32 10305.6C-535.005 10160.5 225.722 11132.2 411.137 10987C596.552 10841.8 -164.274 9870.25 21.1411 9725.08C206.556 9579.92 967.184 10551.7 1152.6 10406.5C1338.01 10261.3 577.188 9289.75 762.603 9144.58C948.018 8999.42 1708.64 9971.16 1894.06 9825.99C2079.48 9680.83 1318.65 8709.25 1504.06 8564.08C1689.48 8418.92 2450.11 9390.66 2635.52 9245.49C2820.94 9100.33 2060.11 8128.75 2245.43 7983.66C2430.74 7838.57 3191.57 8810.16 3377.28 8664.76C3562.99 8519.36 2801.87 7548.01 2987.19 7402.93C3172.5 7257.84 3933.43 8229.34 4118.34 8084.57C4303.26 7939.79 3542.93 6967.82 3728.85 6822.27C3914.76 6676.72 4674.89 7648.84 4860.2 7503.76C5045.52 7358.67 4284.89 6386.93 4470.21 6241.84C4655.52 6096.76 5416.25 7068.42 5601.66 6923.25C5787.08 6778.09 5026.25 5806.51 5211.57 5661.42C5396.89 5516.34 6157.71 6487.92 6343.13 6342.75C6528.54 6197.59 5767.71 5226.01 5953.13 5080.84C6138.55 4935.68 6899.17 5907.42 7084.59 5762.25C7270 5617.09 6509.18 4645.51 6694.59 4500.34C6880.01 4355.18 7640.63 5326.92 7826.05 5181.75C8011.46 5036.59 7250.64 4065 7436.05 3919.84C7621.47 3774.68 8382.1 4746.41 8567.51 4601.25C8752.93 4456.09 7992.2 3484.43 8177.51 3339.34C8362.83 3194.25 9123.66 4165.84 9308.97 4020.75C9494.29 3875.66 8733.66 2903.93 8918.98 2758.84C9104.29 2613.75 9865.12 3585.33 10050.5 3440.17C10235.9 3295.01 9475.12 2323.42 9660.54 2178.26C9845.95 2033.1 10606.7 3004.76 10792 2859.67C10977.3 2714.58 10216.7 1742.85 10402.1 1597.68C10587.5 1452.52 11348.2 2424.18 11533.7 2279.01C11719.1 2133.85 10958.3 1162.19 11143.7 1017.1" stroke="#A0A3BD" stroke-width="7" stroke-miterlimit="10"/>
<path d="M-1901.82 8796.49C-1716.5 8651.4 -955.778 9623.06 -770.363 9477.9C-584.948 9332.73 -1345.77 8361.15 -1160.36 8215.99C-974.944 8070.82 -214.316 9042.56 -28.9014 8897.4C156.514 8752.23 -604.312 7780.65 -418.897 7635.49C-233.482 7490.32 527.145 8462.06 712.56 8316.9C897.975 8171.73 137.149 7200.15 322.564 7054.99C507.979 6909.82 1268.61 7881.56 1454.02 7736.39C1639.44 7591.23 878.61 6619.65 1063.93 6474.56C1249.24 6329.48 2010.07 7301.06 2195.78 7155.66C2381.49 7010.26 1620.37 6038.91 1805.69 5893.83C1991 5748.74 2751.93 6720.25 2936.84 6575.47C3121.76 6430.69 2361.43 5458.72 2547.35 5313.17C2733.26 5167.62 3493.39 6139.74 3678.7 5994.66C3864.02 5849.57 3103.39 4877.83 3288.71 4732.75C3474.02 4587.66 4234.75 5559.32 4420.16 5414.16C4605.58 5268.99 3844.75 4297.41 4030.07 4152.32C4215.39 4007.24 4976.21 4978.82 5161.63 4833.66C5347.04 4688.49 4586.21 3716.91 4771.63 3571.75C4957.05 3426.58 5717.67 4398.32 5903.09 4253.15C6088.5 4107.99 5327.68 3136.41 5513.09 2991.24C5698.51 2846.08 6459.13 3817.82 6644.55 3672.65C6829.96 3527.49 6069.14 2555.91 6254.55 2410.74C6439.97 2265.58 7200.6 3237.32 7386.01 3092.15C7571.43 2946.99 6810.7 1975.33 6996.01 1830.24C7181.33 1685.16 7942.16 2656.74 8127.47 2511.65C8312.79 2366.56 7552.16 1394.83 7737.48 1249.74C7922.79 1104.65 8683.62 2076.24 8869.03 1931.07C9054.45 1785.91 8293.62 814.326 8479.04 669.162C8664.45 523.998 9425.18 1495.66 9610.49 1350.57C9795.81 1205.49 9035.18 233.748 9220.6 88.5838C9406.01 -56.5804 10166.7 915.079 10352.2 769.915C10537.6 624.751 9776.84 -346.909 9962.16 -491.995" stroke="#A0A3BD" stroke-width="7" stroke-miterlimit="10"/>
<path d="M2022.57 13809C2207.89 13663.9 2968.61 14635.6 3154.03 14490.4C3339.44 14345.3 2578.62 13373.7 2764.03 13228.5C2949.45 13083.4 3710.07 14055.1 3895.49 13909.9C4080.9 13764.8 3320.08 12793.2 3505.49 12648C3690.91 12502.9 4451.54 13474.6 4636.95 13329.4C4822.37 13184.3 4061.54 12212.7 4246.95 12067.5C4432.37 11922.4 5193 12894.1 5378.41 12748.9C5563.83 12603.8 4803 11632.2 4988.32 11487.1C5173.63 11342 5934.46 12313.6 6120.17 12168.2C6305.88 12022.8 5544.76 11051.4 5730.08 10906.4C5915.39 10761.3 6676.32 11732.8 6861.24 11588C7046.15 11443.2 6285.82 10471.3 6471.74 10325.7C6657.65 10180.2 7417.78 11152.3 7603.09 11007.2C7788.41 10862.1 7027.78 9890.37 7213.1 9745.28C7398.41 9600.2 8159.14 10571.9 8344.56 10426.7C8529.97 10281.5 7769.14 9309.95 7954.46 9164.86C8139.78 9019.77 8900.6 9991.35 9086.02 9846.19C9271.43 9701.03 8510.61 8729.44 8696.02 8584.28C8881.44 8439.12 9642.06 9410.85 9827.48 9265.69C10012.9 9120.53 9252.07 8148.94 9437.48 8003.78C9622.9 7858.62 10383.5 8830.35 10568.9 8685.19C10754.4 8540.02 9993.53 7568.44 10178.9 7423.28C10364.4 7278.11 11125 8249.85 11310.4 8104.69C11495.8 7959.52 10735.1 6987.86 10920.4 6842.78C11105.7 6697.69 11866.5 7669.27 12051.9 7524.19C12237.2 7379.1 11476.6 6407.36 11661.9 6262.28C11847.2 6117.19 12608 7088.77 12793.4 6943.61C12978.8 6798.44 12218 5826.86 12403.4 5681.7C12588.8 5536.53 13349.6 6508.19 13534.9 6363.11C13720.2 6218.02 12959.6 5246.28 13145 5101.12C13330.4 4955.95 14091.1 5927.61 14276.5 5782.45C14462 5637.29 13701.2 4665.63 13886.5 4520.54" stroke="#A0A3BD" stroke-width="7" stroke-miterlimit="10"/>
<path d="M-5445.37 4270.38C-5260.06 4125.3 -4499.33 5096.96 -4313.91 4951.79C-4128.5 4806.63 -4889.32 3835.05 -4703.91 3689.88C-4518.49 3544.72 -3757.87 4516.46 -3572.45 4371.29C-3387.04 4226.13 -4147.86 3254.54 -3962.45 3109.38C-3777.03 2964.22 -3016.41 3935.95 -2830.99 3790.79C-2645.58 3645.63 -3406.4 2674.04 -3220.99 2528.88C-3035.57 2383.72 -2274.94 3355.45 -2089.53 3210.29C-1904.11 3065.12 -2664.94 2093.54 -2479.62 1948.46C-2294.31 1803.37 -1533.48 2774.95 -1347.77 2629.55C-1162.06 2484.16 -1923.18 1512.81 -1737.87 1367.72C-1552.55 1222.64 -791.624 2194.14 -606.706 2049.36C-421.787 1904.59 -1182.12 932.618 -996.205 787.065C-810.294 641.512 -50.1628 1613.64 135.153 1468.55C320.469 1323.47 -440.159 351.728 -254.843 206.642C-69.5274 61.5555 691.199 1033.22 876.614 888.052C1062.03 742.887 301.203 -228.695 486.519 -373.781C671.834 -518.868 1432.66 452.714 1618.08 307.55C1803.49 162.386 1042.66 -809.196 1228.08 -954.36C1413.49 -1099.52 2174.12 -127.787 2359.54 -272.951C2544.95 -418.115 1784.13 -1389.7 1969.54 -1534.86C2154.96 -1680.03 2915.58 -708.287 3101 -853.452C3286.41 -998.616 2525.59 -1970.2 2711 -2115.36C2896.42 -2260.53 3657.04 -1288.79 3842.46 -1433.95C4027.87 -1579.12 3267.15 -2550.78 3452.46 -2695.86C3637.78 -2840.95 4398.61 -1869.37 4583.92 -2014.45C4769.24 -2159.54 4008.61 -3131.28 4193.93 -3276.36C4379.24 -3421.45 5140.07 -2449.87 5325.48 -2595.03C5510.9 -2740.2 4750.07 -3711.78 4935.49 -3856.94C5120.9 -4002.11 5881.63 -3030.45 6066.94 -3175.53C6252.26 -3320.62 5491.63 -4292.36 5677.05 -4437.52C5862.46 -4582.69 6623.19 -3611.03 6808.6 -3756.19C6994.02 -3901.35 6233.29 -4873.01 6418.61 -5018.1" stroke="#A0A3BD" stroke-width="7" stroke-miterlimit="10"/>
<path d="M-2702.48 7773.82C-2517.16 7628.73 -1756.44 8600.39 -1571.02 8455.23C-1385.61 8310.06 -2146.43 7338.48 -1961.02 7193.32C-1775.6 7048.15 -1014.98 8019.89 -829.562 7874.72C-644.147 7729.56 -1404.97 6757.98 -1219.56 6612.81C-1034.14 6467.65 -273.515 7439.39 -88.1002 7294.22C97.3148 7149.06 -663.511 6177.48 -478.096 6032.31C-292.681 5887.15 467.946 6858.89 653.361 6713.72C838.776 6568.56 77.9502 5596.98 263.266 5451.89C448.582 5306.8 1209.41 6278.39 1395.12 6132.99C1580.83 5987.59 819.71 5016.24 1005.03 4871.16C1190.34 4726.07 1951.27 5697.57 2136.18 5552.8C2321.1 5408.02 1560.77 4436.05 1746.69 4290.5C1932.6 4144.95 2692.73 5117.07 2878.04 4971.99C3063.36 4826.9 2302.73 3855.16 2488.05 3710.08C2673.36 3564.99 3434.09 4536.65 3619.5 4391.49C3804.92 4246.32 3044.09 3274.74 3229.41 3129.65C3414.72 2984.57 4175.55 3956.15 4360.97 3810.98C4546.38 3665.82 3785.55 2694.24 3970.97 2549.07C4156.38 2403.91 4917.01 3375.65 5102.43 3230.48C5287.84 3085.32 4527.02 2113.74 4712.43 1968.57C4897.85 1823.41 5658.47 2795.15 5843.89 2649.98C6029.3 2504.82 5268.48 1533.24 5453.89 1388.07C5639.31 1242.91 6399.94 2214.64 6585.35 2069.48C6770.77 1924.32 6010.04 952.657 6195.35 807.57C6380.67 662.484 7141.5 1634.07 7326.81 1488.98C7512.13 1343.89 6751.5 372.156 6936.82 227.069C7122.13 81.9829 7882.96 1053.56 8068.37 908.401C8253.79 763.237 7492.96 -208.346 7678.38 -353.51C7863.79 -498.674 8624.52 472.986 8809.83 327.9C8995.15 182.813 8234.52 -788.924 8419.94 -934.088C8605.35 -1079.25 9366.08 -107.593 9551.49 -252.757C9736.91 -397.921 8976.18 -1369.58 9161.5 -1514.67" stroke="#A0A3BD" stroke-width="7" stroke-miterlimit="10"/>
<path d="M1221.9 12786.3C1407.22 12641.3 2167.94 13612.9 2353.36 13467.8C2538.77 13322.6 1777.95 12351 1963.36 12205.8C2148.78 12060.7 2909.41 13032.4 3094.82 12887.3C3280.24 12742.1 2519.41 11770.5 2704.83 11625.3C2890.24 11480.2 3650.87 12451.9 3836.28 12306.8C4021.7 12161.6 3260.87 11190 3446.29 11044.8C3631.7 10899.7 4392.33 11871.4 4577.74 11726.2C4763.16 11581.1 4002.33 10609.5 4187.65 10464.4C4372.96 10319.3 5133.79 11290.9 5319.5 11145.5C5505.22 11000.1 4744.09 10028.8 4929.41 9883.68C5114.72 9738.6 5875.65 10710.1 6060.57 10565.3C6245.49 10420.6 5485.16 9448.58 5671.07 9303.03C5856.98 9157.47 6617.11 10129.6 6802.43 9984.51C6987.74 9839.43 6227.11 8867.69 6412.43 8722.6C6597.75 8577.52 7358.47 9549.18 7543.89 9404.01C7729.3 9258.85 6968.48 8287.27 7153.79 8142.18C7339.11 7997.09 8099.93 8968.68 8285.35 8823.51C8470.76 8678.35 7709.94 7706.77 7895.35 7561.6C8080.77 7416.44 8841.4 8388.17 9026.81 8243.01C9212.23 8097.85 8451.4 7126.26 8636.81 6981.1C8822.23 6835.94 9582.86 7807.67 9768.27 7662.51C9953.69 7517.35 9192.86 6545.76 9378.28 6400.6C9563.69 6255.43 10324.3 7227.17 10509.7 7082.01C10695.1 6936.84 9934.42 5965.18 10119.7 5820.1C10305.1 5675.01 11065.9 6646.59 11251.2 6501.51C11436.5 6356.42 10675.9 5384.68 10861.2 5239.6C11046.5 5094.51 11807.3 6066.09 11992.8 5920.93C12178.2 5775.76 11417.3 4804.18 11602.8 4659.02C11788.2 4513.85 12548.9 5485.51 12734.2 5340.43C12919.5 5195.34 12158.9 4223.6 12344.3 4078.44C12529.7 3933.28 13290.5 4904.93 13475.9 4759.77C13661.3 4614.61 12900.6 3642.95 13085.9 3497.86" stroke="#A0A3BD" stroke-width="7" stroke-miterlimit="10"/>
<path d="M-3883.98 6264.72C-3698.66 6119.63 -2937.93 7091.29 -2752.52 6946.13C-2567.1 6800.96 -3327.93 5829.38 -3142.52 5684.22C-2957.1 5539.05 -2196.47 6510.79 -2011.06 6365.63C-1825.64 6220.46 -2586.47 5248.88 -2401.05 5103.72C-2215.64 4958.55 -1455.01 5930.29 -1269.6 5785.13C-1084.18 5639.96 -1845.01 4668.38 -1659.59 4523.22C-1474.18 4378.05 -713.55 5349.79 -528.135 5204.62C-342.72 5059.46 -1103.55 4087.88 -918.23 3942.79C-732.914 3797.71 27.9116 4769.29 213.625 4623.89C399.338 4478.49 -361.787 3507.14 -176.471 3362.06C8.84487 3216.97 769.77 4188.48 954.689 4043.7C1139.61 3898.93 379.278 2926.95 565.189 2781.4C751.101 2635.85 1511.23 3607.97 1696.55 3462.89C1881.86 3317.8 1121.24 2346.06 1306.55 2200.98C1491.87 2055.89 2252.59 3027.55 2438.01 2882.39C2623.42 2737.22 1862.6 1765.64 2047.91 1620.55C2233.23 1475.47 2994.06 2447.05 3179.47 2301.89C3364.89 2156.72 2604.06 1185.14 2789.47 1039.98C2974.89 894.812 3735.52 1866.55 3920.93 1721.39C4106.35 1576.22 3345.52 604.639 3530.94 459.475C3716.35 314.311 4476.98 1286.05 4662.39 1140.88C4847.81 995.72 4086.98 24.1375 4272.4 -121.027C4457.81 -266.191 5218.44 705.547 5403.85 560.383C5589.27 415.219 4828.54 -556.441 5013.86 -701.527C5199.17 -846.614 5960 124.968 6145.32 -20.1183C6330.63 -165.205 5570 -1136.94 5755.32 -1282.03C5940.64 -1427.11 6701.46 -455.533 6886.88 -600.697C7072.29 -745.861 6311.47 -1717.44 6496.88 -1862.61C6682.3 -2007.77 7443.02 -1036.11 7628.34 -1181.2C7813.65 -1326.28 7053.03 -2298.02 7238.44 -2443.19C7423.86 -2588.35 8184.58 -1616.69 8370 -1761.85C8555.41 -1907.02 7794.69 -2878.68 7980 -3023.76" stroke="#A0A3BD" stroke-width="7" stroke-miterlimit="10"/>
<path d="M40.4023 11277.3C225.718 11132.2 986.445 12103.8 1171.86 11958.7C1357.27 11813.5 596.449 10841.9 781.864 10696.8C967.279 10551.6 1727.91 11523.3 1913.32 11378.2C2098.74 11233 1337.91 10261.4 1523.33 10116.3C1708.74 9971.09 2469.37 10942.8 2654.78 10797.7C2840.2 10652.5 2079.37 9680.92 2264.79 9535.75C2450.2 9390.59 3210.83 10362.3 3396.24 10217.2C3581.66 10072 2820.83 9100.42 3006.15 8955.33C3191.46 8810.24 3952.29 9781.83 4138 9636.43C4323.72 9491.03 3562.59 8519.68 3747.91 8374.6C3933.22 8229.51 4694.15 9201.01 4879.07 9056.24C5063.99 8911.46 4303.66 7939.49 4489.57 7793.94C4675.48 7648.39 5435.61 8620.51 5620.93 8475.43C5806.24 8330.34 5045.61 7358.6 5230.93 7213.52C5416.25 7068.43 6176.97 8040.09 6362.39 7894.93C6547.8 7749.76 5786.98 6778.18 5972.29 6633.09C6157.61 6488.01 6918.43 7459.59 7103.85 7314.43C7289.26 7169.26 6528.44 6197.68 6713.85 6052.52C6899.27 5907.35 7659.9 6879.09 7845.31 6733.92C8030.73 6588.76 7269.9 5617.18 7455.31 5472.01C7640.73 5326.85 8401.36 6298.59 8586.77 6153.42C8772.19 6008.26 8011.36 5036.68 8196.78 4891.51C8382.19 4746.35 9142.82 5718.09 9328.23 5572.92C9513.65 5427.76 8752.92 4456.1 8938.24 4311.01C9123.55 4165.93 9884.38 5137.51 10069.7 4992.42C10255 4847.33 9494.38 3875.6 9679.7 3730.51C9865.01 3585.42 10625.8 4557.01 10811.3 4411.84C10996.7 4266.68 10235.8 3295.1 10421.3 3149.93C10606.7 3004.77 11367.4 3976.43 11552.7 3831.34C11738 3686.25 10977.4 2714.52 11162.8 2569.35C11348.2 2424.19 12109 3395.85 12294.4 3250.68C12479.8 3105.52 11719.1 2133.86 11904.4 1988.77" stroke="#A0A3BD" stroke-width="7" stroke-miterlimit="10"/>
<path d="M-1141.09 9768.15C-955.774 9623.06 -195.047 10594.7 -9.63243 10449.6C175.783 10304.4 -585.043 9332.81 -399.628 9187.65C-214.213 9042.48 546.414 10014.2 731.829 9869.06C917.244 9723.89 156.418 8752.31 341.833 8607.15C527.248 8461.98 1287.88 9433.72 1473.29 9288.56C1658.71 9143.39 897.879 8171.81 1083.29 8026.65C1268.71 7881.48 2029.34 8853.22 2214.75 8708.05C2400.17 8562.89 1639.34 7591.31 1824.66 7446.22C2009.97 7301.14 2770.8 8272.72 2956.51 8127.32C3142.22 7981.92 2381.1 7010.57 2566.42 6865.49C2751.73 6720.4 3512.66 7691.91 3697.58 7547.13C3882.49 7402.35 3122.16 6430.38 3308.08 6284.83C3493.99 6139.28 4254.12 7111.4 4439.43 6966.32C4624.75 6821.23 3864.12 5849.49 4049.44 5704.41C4234.75 5559.32 4995.48 6530.98 5180.9 6385.82C5366.31 6240.65 4605.48 5269.07 4790.8 5123.98C4976.12 4978.9 5736.94 5950.48 5922.36 5805.32C6107.77 5660.15 5346.95 4688.57 5532.36 4543.41C5717.78 4398.24 6478.4 5369.98 6663.82 5224.81C6849.23 5079.65 6088.41 4108.07 6273.82 3962.9C6459.24 3817.74 7219.86 4789.48 7405.28 4644.31C7590.69 4499.15 6829.87 3527.57 7015.28 3382.4C7200.7 3237.24 7961.33 4208.98 8146.74 4063.81C8332.16 3918.65 7571.43 2946.99 7756.75 2801.9C7942.06 2656.82 8702.89 3628.4 8888.2 3483.31C9073.52 3338.23 8312.89 2366.49 8498.21 2221.4C8683.52 2076.31 9444.35 3047.9 9629.76 2902.73C9815.18 2757.57 9054.35 1785.99 9239.77 1640.82C9425.18 1495.66 10185.9 2467.32 10371.2 2322.23C10556.5 2177.15 9795.91 1205.41 9981.33 1060.24C10166.7 915.08 10927.5 1886.74 11112.9 1741.57C11298.3 1596.41 10537.6 624.751 10722.9 479.665" stroke="#A0A3BD" stroke-width="7" stroke-miterlimit="10"/>
<path d="M2783.3 14780.7C2968.61 14635.6 3729.34 15607.3 3914.75 15462.1C4100.17 15316.9 3339.34 14345.4 3524.76 14200.2C3710.17 14055 4470.8 15026.8 4656.22 14881.6C4841.63 14736.4 4080.8 13764.9 4266.22 13619.7C4451.63 13474.5 5212.26 14446.3 5397.68 14301.1C5583.09 14155.9 4822.27 13184.4 5007.68 13039.2C5193.1 12894 5953.72 13865.8 6139.14 13720.6C6324.55 13575.4 5563.73 12603.9 5749.04 12458.8C5934.36 12313.7 6695.19 13285.3 6880.9 13139.9C7066.61 12994.5 6305.49 12023.1 6490.8 11878C6676.12 11732.9 7437.04 12704.5 7621.96 12559.7C7806.88 12414.9 7046.55 11442.9 7232.46 11297.4C7418.37 11151.8 8178.51 12124 8363.82 11978.9C8549.14 11833.8 7788.51 10862 7973.82 10717C8159.14 10571.9 8919.87 11543.5 9105.28 11398.4C9290.7 11253.2 8529.87 10281.6 8715.19 10136.5C8900.5 9991.44 9661.33 10963 9846.74 10817.9C10032.2 10672.7 9271.33 9701.12 9456.75 9555.95C9642.16 9410.79 10402.8 10382.5 10588.2 10237.4C10773.6 10092.2 10012.8 9120.62 10198.2 8975.45C10383.6 8830.29 11144.3 9802.03 11329.7 9656.86C11515.1 9511.7 10754.3 8540.11 10939.7 8394.95C11125.1 8249.79 11885.7 9221.52 12071.1 9076.36C12256.5 8931.2 11495.8 7959.54 11681.1 7814.45C11866.4 7669.36 12627.3 8640.94 12812.6 8495.86C12997.9 8350.77 12237.3 7379.03 12422.6 7233.95C12607.9 7088.86 13368.7 8060.44 13554.2 7915.28C13739.6 7770.12 12978.7 6798.53 13164.2 6653.37C13349.6 6508.2 14110.3 7479.87 14295.6 7334.78C14480.9 7189.69 13720.3 6217.95 13905.7 6072.79C14091.1 5927.63 14851.9 6899.29 15037.3 6754.12C15222.7 6608.96 14462 5637.3 14647.3 5492.21" stroke="#A0A3BD" stroke-width="7" stroke-miterlimit="10"/>
</g>
<defs>
<clipPath id="clip0_2118_2953">
<rect width="10000" height="10000" fill="white"/>
</clipPath>
</defs>
</svg>
