<svg width="349" height="350" viewBox="0 0 349 350" fill="none" xmlns="http://www.w3.org/2000/svg">
<g clip-path="url(#clip0_186_316)">
<path d="M198.643 129.376H179.381L169.751 146.043L179.381 162.71H198.643L208.275 146.043L198.643 129.376Z" stroke="#FDEBDD" stroke-opacity="0.1" stroke-miterlimit="10"/>
<path d="M198.643 -4.10425H179.381L169.751 12.5626L179.381 29.2294H198.643L208.275 12.5626L198.643 -4.10425Z" stroke="#FDEBDD" stroke-opacity="0.1" stroke-miterlimit="10"/>
<path d="M198.643 262.857H179.381L169.751 279.524L179.381 296.191H198.643L208.275 279.524L198.643 262.857Z" stroke="#FDEBDD" stroke-opacity="0.1" stroke-miterlimit="10"/>
<path d="M198.643 196.19H179.381L169.751 212.857L179.381 229.523H198.643L208.275 212.857L198.643 196.19Z" stroke="#FDEBDD" stroke-opacity="0.1" stroke-miterlimit="10"/>
<path d="M198.643 62.7092H179.381L169.751 79.376L179.381 96.0428H198.643L208.275 79.376L198.643 62.7092Z" stroke="#FDEBDD" stroke-opacity="0.1" stroke-miterlimit="10"/>
<path d="M198.643 329.67H179.381L169.751 346.337L179.381 363.004H198.643L208.275 346.337L198.643 329.67Z" stroke="#FDEBDD" stroke-opacity="0.1" stroke-miterlimit="10"/>
<path d="M198.643 162.71H179.381L169.751 179.45L179.381 196.19H198.643L208.275 179.45L198.643 162.71Z" stroke="#FDEBDD" stroke-opacity="0.1" stroke-miterlimit="10"/>
<path d="M198.643 29.2294H179.381L169.751 45.9693L179.381 62.7092H198.643L208.275 45.9693L198.643 29.2294Z" stroke="#FDEBDD" stroke-opacity="0.1" stroke-miterlimit="10"/>
<path d="M198.643 296.191H179.381L169.751 312.931L179.381 329.67H198.643L208.275 312.931L198.643 296.191Z" stroke="#FDEBDD" stroke-opacity="0.1" stroke-miterlimit="10"/>
<path d="M198.643 229.523H179.381L169.751 246.19L179.381 262.857H198.643L208.275 246.19L198.643 229.523Z" stroke="#FDEBDD" stroke-opacity="0.1" stroke-miterlimit="10"/>
<path d="M198.643 96.0428H179.381L169.751 112.71L179.381 129.376H198.643L208.275 112.71L198.643 96.0428Z" stroke="#FDEBDD" stroke-opacity="0.1" stroke-miterlimit="10"/>
<path d="M44.8041 129.376H25.6154L16.0215 146.043L25.6154 162.71H44.8041L54.399 146.043L44.8041 129.376Z" stroke="#FDEBDD" stroke-opacity="0.1" stroke-miterlimit="10"/>
<path d="M44.8041 -4.10425H25.6154L16.0215 12.5626L25.6154 29.2294H44.8041L54.399 12.5626L44.8041 -4.10425Z" stroke="#FDEBDD" stroke-opacity="0.1" stroke-miterlimit="10"/>
<path d="M44.8041 262.857H25.6154L16.0215 279.524L25.6154 296.191H44.8041L54.399 279.524L44.8041 262.857Z" stroke="#FDEBDD" stroke-opacity="0.1" stroke-miterlimit="10"/>
<path d="M44.8041 196.19H25.6154L16.0215 212.857L25.6154 229.523H44.8041L54.399 212.857L44.8041 196.19Z" stroke="#FDEBDD" stroke-opacity="0.1" stroke-miterlimit="10"/>
<path d="M44.8041 62.7092H25.6154L16.0215 79.376L25.6154 96.0428H44.8041L54.399 79.376L44.8041 62.7092Z" stroke="#FDEBDD" stroke-opacity="0.1" stroke-miterlimit="10"/>
<path d="M44.8041 329.67H25.6154L16.0215 346.337L25.6154 363.004H44.8041L54.399 346.337L44.8041 329.67Z" stroke="#FDEBDD" stroke-opacity="0.1" stroke-miterlimit="10"/>
<path d="M44.8041 162.71H25.6154L16.0215 179.45L25.6154 196.19H44.8041L54.399 179.45L44.8041 162.71Z" stroke="#FDEBDD" stroke-opacity="0.1" stroke-miterlimit="10"/>
<path d="M44.8041 29.2294H25.6154L16.0215 45.9693L25.6154 62.7092H44.8041L54.399 45.9693L44.8041 29.2294Z" stroke="#FDEBDD" stroke-opacity="0.1" stroke-miterlimit="10"/>
<path d="M44.8041 296.191H25.6154L16.0215 312.931L25.6154 329.67H44.8041L54.399 312.931L44.8041 296.191Z" stroke="#FDEBDD" stroke-opacity="0.1" stroke-miterlimit="10"/>
<path d="M44.8041 229.523H25.6154L16.0215 246.19L25.6154 262.857H44.8041L54.399 246.19L44.8041 229.523Z" stroke="#FDEBDD" stroke-opacity="0.1" stroke-miterlimit="10"/>
<path d="M44.8041 96.0428H25.6154L16.0215 112.71L25.6154 129.376H44.8041L54.399 112.71L44.8041 96.0428Z" stroke="#FDEBDD" stroke-opacity="0.1" stroke-miterlimit="10"/>
<path d="M352.537 129.376H333.312L323.7 146.043L333.312 162.71H352.537L362.15 146.043L352.537 129.376Z" stroke="#FDEBDD" stroke-opacity="0.1" stroke-miterlimit="10"/>
<path d="M352.537 -4.10425H333.312L323.7 12.5626L333.312 29.2294H352.537L362.15 12.5626L352.537 -4.10425Z" stroke="#FDEBDD" stroke-opacity="0.1" stroke-miterlimit="10"/>
<path d="M352.537 262.857H333.312L323.7 279.524L333.312 296.191H352.537L362.15 279.524L352.537 262.857Z" stroke="#FDEBDD" stroke-opacity="0.1" stroke-miterlimit="10"/>
<path d="M352.537 196.19H333.312L323.7 212.857L333.312 229.523H352.537L362.15 212.857L352.537 196.19Z" stroke="#FDEBDD" stroke-opacity="0.1" stroke-miterlimit="10"/>
<path d="M352.537 62.7092H333.312L323.7 79.376L333.312 96.0428H352.537L362.15 79.376L352.537 62.7092Z" stroke="#FDEBDD" stroke-opacity="0.1" stroke-miterlimit="10"/>
<path d="M352.537 329.67H333.312L323.7 346.337L333.312 363.004H352.537L362.15 346.337L352.537 329.67Z" stroke="#FDEBDD" stroke-opacity="0.1" stroke-miterlimit="10"/>
<path d="M352.537 162.71H333.312L323.7 179.45L333.312 196.19H352.537L362.15 179.45L352.537 162.71Z" stroke="#FDEBDD" stroke-opacity="0.1" stroke-miterlimit="10"/>
<path d="M352.537 29.2294H333.312L323.7 45.9693L333.312 62.7092H352.537L362.15 45.9693L352.537 29.2294Z" stroke="#FDEBDD" stroke-opacity="0.1" stroke-miterlimit="10"/>
<path d="M352.537 296.191H333.312L323.7 312.931L333.312 329.67H352.537L362.15 312.931L352.537 296.191Z" stroke="#FDEBDD" stroke-opacity="0.1" stroke-miterlimit="10"/>
<path d="M352.537 229.523H333.312L323.7 246.19L333.312 262.857H352.537L362.15 246.19L352.537 229.523Z" stroke="#FDEBDD" stroke-opacity="0.1" stroke-miterlimit="10"/>
<path d="M352.537 96.0428H333.312L323.7 112.71L333.312 129.376H352.537L362.15 112.71L352.537 96.0428Z" stroke="#FDEBDD" stroke-opacity="0.1" stroke-miterlimit="10"/>
<path d="M275.563 129.376H256.337L246.725 146.043L256.337 162.71H275.563L285.176 146.043L275.563 129.376Z" stroke="#FDEBDD" stroke-opacity="0.1" stroke-miterlimit="10"/>
<path d="M275.563 -4.10425H256.337L246.725 12.5626L256.337 29.2294H275.563L285.176 12.5626L275.563 -4.10425Z" stroke="#FDEBDD" stroke-opacity="0.1" stroke-miterlimit="10"/>
<path d="M275.563 262.857H256.337L246.725 279.524L256.337 296.191H275.563L285.176 279.524L275.563 262.857Z" stroke="#FDEBDD" stroke-opacity="0.1" stroke-miterlimit="10"/>
<path d="M275.563 196.19H256.337L246.725 212.857L256.337 229.523H275.563L285.176 212.857L275.563 196.19Z" stroke="#FDEBDD" stroke-opacity="0.1" stroke-miterlimit="10"/>
<path d="M275.563 62.7092H256.337L246.725 79.376L256.337 96.0428H275.563L285.176 79.376L275.563 62.7092Z" stroke="#FDEBDD" stroke-opacity="0.1" stroke-miterlimit="10"/>
<path d="M275.563 329.67H256.337L246.725 346.337L256.337 363.004H275.563L285.176 346.337L275.563 329.67Z" stroke="#FDEBDD" stroke-opacity="0.1" stroke-miterlimit="10"/>
<path d="M275.563 162.71H256.337L246.725 179.45L256.337 196.19H275.563L285.176 179.45L275.563 162.71Z" stroke="#FDEBDD" stroke-opacity="0.1" stroke-miterlimit="10"/>
<path d="M275.563 29.2294H256.337L246.725 45.9693L256.337 62.7092H275.563L285.176 45.9693L275.563 29.2294Z" stroke="#FDEBDD" stroke-opacity="0.1" stroke-miterlimit="10"/>
<path d="M275.563 296.191H256.337L246.725 312.931L256.337 329.67H275.563L285.176 312.931L275.563 296.191Z" stroke="#FDEBDD" stroke-opacity="0.1" stroke-miterlimit="10"/>
<path d="M275.563 229.523H256.337L246.725 246.19L256.337 262.857H275.563L285.176 246.19L275.563 229.523Z" stroke="#FDEBDD" stroke-opacity="0.1" stroke-miterlimit="10"/>
<path d="M275.563 96.0428H256.337L246.725 112.71L256.337 129.376H275.563L285.176 112.71L275.563 96.0428Z" stroke="#FDEBDD" stroke-opacity="0.1" stroke-miterlimit="10"/>
<path d="M121.742 129.376H102.48L92.8496 146.043L102.48 162.71H121.742L131.373 146.043L121.742 129.376Z" stroke="#FDEBDD" stroke-opacity="0.1" stroke-miterlimit="10"/>
<path d="M121.742 -4.10425H102.48L92.8496 12.5626L102.48 29.2294H121.742L131.373 12.5626L121.742 -4.10425Z" stroke="#FDEBDD" stroke-opacity="0.1" stroke-miterlimit="10"/>
<path d="M121.742 262.857H102.48L92.8496 279.524L102.48 296.191H121.742L131.373 279.524L121.742 262.857Z" stroke="#FDEBDD" stroke-opacity="0.1" stroke-miterlimit="10"/>
<path d="M121.742 196.19H102.48L92.8496 212.857L102.48 229.523H121.742L131.373 212.857L121.742 196.19Z" stroke="#FDEBDD" stroke-opacity="0.1" stroke-miterlimit="10"/>
<path d="M121.742 62.7092H102.48L92.8496 79.376L102.48 96.0428H121.742L131.373 79.376L121.742 62.7092Z" stroke="#FDEBDD" stroke-opacity="0.1" stroke-miterlimit="10"/>
<path d="M121.742 329.67H102.48L92.8496 346.337L102.48 363.004H121.742L131.373 346.337L121.742 329.67Z" stroke="#FDEBDD" stroke-opacity="0.1" stroke-miterlimit="10"/>
<path d="M121.742 162.71H102.48L92.8496 179.45L102.48 196.19H121.742L131.373 179.45L121.742 162.71Z" stroke="#FDEBDD" stroke-opacity="0.1" stroke-miterlimit="10"/>
<path d="M121.742 29.2294H102.48L92.8496 45.9693L102.48 62.7092H121.742L131.373 45.9693L121.742 29.2294Z" stroke="#FDEBDD" stroke-opacity="0.1" stroke-miterlimit="10"/>
<path d="M121.742 296.191H102.48L92.8496 312.931L102.48 329.67H121.742L131.373 312.931L121.742 296.191Z" stroke="#FDEBDD" stroke-opacity="0.1" stroke-miterlimit="10"/>
<path d="M121.742 229.523H102.48L92.8496 246.19L102.48 262.857H121.742L131.373 246.19L121.742 229.523Z" stroke="#FDEBDD" stroke-opacity="0.1" stroke-miterlimit="10"/>
<path d="M121.742 96.0428H102.48L92.8496 112.71L102.48 129.376H121.742L131.373 112.71L121.742 96.0428Z" stroke="#FDEBDD" stroke-opacity="0.1" stroke-miterlimit="10"/>
<path d="M237.112 129.376H217.887L208.275 146.043L217.887 162.71H237.112L246.726 146.043L237.112 129.376Z" stroke="#FDEBDD" stroke-opacity="0.1" stroke-miterlimit="10"/>
<path d="M237.112 -4.10425H217.887L208.275 12.5626L217.887 29.2294H237.112L246.726 12.5626L237.112 -4.10425Z" stroke="#FDEBDD" stroke-opacity="0.1" stroke-miterlimit="10"/>
<path d="M237.112 262.857H217.887L208.275 279.524L217.887 296.191H237.112L246.726 279.524L237.112 262.857Z" stroke="#FDEBDD" stroke-opacity="0.1" stroke-miterlimit="10"/>
<path d="M237.112 196.19H217.887L208.275 212.857L217.887 229.523H237.112L246.726 212.857L237.112 196.19Z" stroke="#FDEBDD" stroke-opacity="0.1" stroke-miterlimit="10"/>
<path d="M237.112 62.7092H217.887L208.275 79.376L217.887 96.0428H237.112L246.726 79.376L237.112 62.7092Z" stroke="#FDEBDD" stroke-opacity="0.1" stroke-miterlimit="10"/>
<path d="M237.112 329.67H217.887L208.275 346.337L217.887 363.004H237.112L246.726 346.337L237.112 329.67Z" stroke="#FDEBDD" stroke-opacity="0.1" stroke-miterlimit="10"/>
<path d="M237.112 162.71H217.887L208.275 179.45L217.887 196.19H237.112L246.726 179.45L237.112 162.71Z" stroke="#FDEBDD" stroke-opacity="0.1" stroke-miterlimit="10"/>
<path d="M237.112 29.2294H217.887L208.275 45.9693L217.887 62.7092H237.112L246.726 45.9693L237.112 29.2294Z" stroke="#FDEBDD" stroke-opacity="0.1" stroke-miterlimit="10"/>
<path d="M237.112 296.191H217.887L208.275 312.931L217.887 329.67H237.112L246.726 312.931L237.112 296.191Z" stroke="#FDEBDD" stroke-opacity="0.1" stroke-miterlimit="10"/>
<path d="M237.112 229.523H217.887L208.275 246.19L217.887 262.857H237.112L246.726 246.19L237.112 229.523Z" stroke="#FDEBDD" stroke-opacity="0.1" stroke-miterlimit="10"/>
<path d="M237.112 96.0428H217.887L208.275 112.71L217.887 129.376H237.112L246.726 112.71L237.112 96.0428Z" stroke="#FDEBDD" stroke-opacity="0.1" stroke-miterlimit="10"/>
<path d="M83.2369 129.376H64.0116L54.3994 146.043L64.0116 162.71H83.2369L92.85 146.043L83.2369 129.376Z" stroke="#FDEBDD" stroke-opacity="0.1" stroke-miterlimit="10"/>
<path d="M83.2369 -4.10425H64.0116L54.3994 12.5626L64.0116 29.2294H83.2369L92.85 12.5626L83.2369 -4.10425Z" stroke="#FDEBDD" stroke-opacity="0.1" stroke-miterlimit="10"/>
<path d="M83.2369 262.857H64.0116L54.3994 279.524L64.0116 296.191H83.2369L92.85 279.524L83.2369 262.857Z" stroke="#FDEBDD" stroke-opacity="0.1" stroke-miterlimit="10"/>
<path d="M83.2369 196.19H64.0116L54.3994 212.857L64.0116 229.523H83.2369L92.85 212.857L83.2369 196.19Z" stroke="#FDEBDD" stroke-opacity="0.1" stroke-miterlimit="10"/>
<path d="M83.2369 62.7092H64.0116L54.3994 79.376L64.0116 96.0428H83.2369L92.85 79.376L83.2369 62.7092Z" stroke="#FDEBDD" stroke-opacity="0.1" stroke-miterlimit="10"/>
<path d="M83.2369 329.67H64.0116L54.3994 346.337L64.0116 363.004H83.2369L92.85 346.337L83.2369 329.67Z" stroke="#FDEBDD" stroke-opacity="0.1" stroke-miterlimit="10"/>
<path d="M83.2369 162.71H64.0116L54.3994 179.45L64.0116 196.19H83.2369L92.85 179.45L83.2369 162.71Z" stroke="#FDEBDD" stroke-opacity="0.1" stroke-miterlimit="10"/>
<path d="M83.2369 29.2294H64.0116L54.3994 45.9693L64.0116 62.7092H83.2369L92.85 45.9693L83.2369 29.2294Z" stroke="#FDEBDD" stroke-opacity="0.1" stroke-miterlimit="10"/>
<path d="M83.2369 296.191H64.0116L54.3994 312.931L64.0116 329.67H83.2369L92.85 312.931L83.2369 296.191Z" stroke="#FDEBDD" stroke-opacity="0.1" stroke-miterlimit="10"/>
<path d="M83.2369 229.523H64.0116L54.3994 246.19L64.0116 262.857H83.2369L92.85 246.19L83.2369 229.523Z" stroke="#FDEBDD" stroke-opacity="0.1" stroke-miterlimit="10"/>
<path d="M83.2369 96.0428H64.0116L54.3994 112.71L64.0116 129.376H83.2369L92.85 112.71L83.2369 96.0428Z" stroke="#FDEBDD" stroke-opacity="0.1" stroke-miterlimit="10"/>
<path d="M6.35348 129.376H-12.9815L-22.6484 146.043L-12.9815 162.71H6.35348L16.0215 146.043L6.35348 129.376Z" stroke="#FDEBDD" stroke-opacity="0.1" stroke-miterlimit="10"/>
<path d="M6.35348 -4.10425H-12.9815L-22.6484 12.5626L-12.9815 29.2294H6.35348L16.0215 12.5626L6.35348 -4.10425Z" stroke="#FDEBDD" stroke-opacity="0.1" stroke-miterlimit="10"/>
<path d="M6.35348 262.857H-12.9815L-22.6484 279.524L-12.9815 296.191H6.35348L16.0215 279.524L6.35348 262.857Z" stroke="#FDEBDD" stroke-opacity="0.1" stroke-miterlimit="10"/>
<path d="M6.35348 196.19H-12.9815L-22.6484 212.857L-12.9815 229.523H6.35348L16.0215 212.857L6.35348 196.19Z" stroke="#FDEBDD" stroke-opacity="0.1" stroke-miterlimit="10"/>
<path d="M6.35348 62.7092H-12.9815L-22.6484 79.376L-12.9815 96.0428H6.35348L16.0215 79.376L6.35348 62.7092Z" stroke="#FDEBDD" stroke-opacity="0.1" stroke-miterlimit="10"/>
<path d="M6.35348 329.67H-12.9815L-22.6484 346.337L-12.9815 363.004H6.35348L16.0215 346.337L6.35348 329.67Z" stroke="#FDEBDD" stroke-opacity="0.1" stroke-miterlimit="10"/>
<path d="M6.35348 162.71H-12.9815L-22.6484 179.45L-12.9815 196.19H6.35348L16.0215 179.45L6.35348 162.71Z" stroke="#FDEBDD" stroke-opacity="0.1" stroke-miterlimit="10"/>
<path d="M6.35348 29.2294H-12.9815L-22.6484 45.9693L-12.9815 62.7092H6.35348L16.0215 45.9693L6.35348 29.2294Z" stroke="#FDEBDD" stroke-opacity="0.1" stroke-miterlimit="10"/>
<path d="M6.35348 296.191H-12.9815L-22.6484 312.931L-12.9815 329.67H6.35348L16.0215 312.931L6.35348 296.191Z" stroke="#FDEBDD" stroke-opacity="0.1" stroke-miterlimit="10"/>
<path d="M6.35348 229.523H-12.9815L-22.6484 246.19L-12.9815 262.857H6.35348L16.0215 246.19L6.35348 229.523Z" stroke="#FDEBDD" stroke-opacity="0.1" stroke-miterlimit="10"/>
<path d="M6.35348 96.0428H-12.9815L-22.6484 112.71L-12.9815 129.376H6.35348L16.0215 112.71L6.35348 96.0428Z" stroke="#FDEBDD" stroke-opacity="0.1" stroke-miterlimit="10"/>
<path d="M314.068 129.376H294.806L285.176 146.043L294.806 162.71H314.068L323.699 146.043L314.068 129.376Z" stroke="#FDEBDD" stroke-opacity="0.1" stroke-miterlimit="10"/>
<path d="M314.068 -4.10425H294.806L285.176 12.5626L294.806 29.2294H314.068L323.699 12.5626L314.068 -4.10425Z" stroke="#FDEBDD" stroke-opacity="0.1" stroke-miterlimit="10"/>
<path d="M314.068 262.857H294.806L285.176 279.524L294.806 296.191H314.068L323.699 279.524L314.068 262.857Z" stroke="#FDEBDD" stroke-opacity="0.1" stroke-miterlimit="10"/>
<path d="M314.068 196.19H294.806L285.176 212.857L294.806 229.523H314.068L323.699 212.857L314.068 196.19Z" stroke="#FDEBDD" stroke-opacity="0.1" stroke-miterlimit="10"/>
<path d="M314.068 62.7092H294.806L285.176 79.376L294.806 96.0428H314.068L323.699 79.376L314.068 62.7092Z" stroke="#FDEBDD" stroke-opacity="0.1" stroke-miterlimit="10"/>
<path d="M314.068 329.67H294.806L285.176 346.337L294.806 363.004H314.068L323.699 346.337L314.068 329.67Z" stroke="#FDEBDD" stroke-opacity="0.1" stroke-miterlimit="10"/>
<path d="M314.068 162.71H294.806L285.176 179.45L294.806 196.19H314.068L323.699 179.45L314.068 162.71Z" stroke="#FDEBDD" stroke-opacity="0.1" stroke-miterlimit="10"/>
<path d="M314.068 29.2294H294.806L285.176 45.9693L294.806 62.7092H314.068L323.699 45.9693L314.068 29.2294Z" stroke="#FDEBDD" stroke-opacity="0.1" stroke-miterlimit="10"/>
<path d="M314.068 296.191H294.806L285.176 312.931L294.806 329.67H314.068L323.699 312.931L314.068 296.191Z" stroke="#FDEBDD" stroke-opacity="0.1" stroke-miterlimit="10"/>
<path d="M314.068 229.523H294.806L285.176 246.19L294.806 262.857H314.068L323.699 246.19L314.068 229.523Z" stroke="#FDEBDD" stroke-opacity="0.1" stroke-miterlimit="10"/>
<path d="M314.068 96.0428H294.806L285.176 112.71L294.806 129.376H314.068L323.699 112.71L314.068 96.0428Z" stroke="#FDEBDD" stroke-opacity="0.1" stroke-miterlimit="10"/>
<path d="M160.156 129.376H140.967L131.374 146.043L140.967 162.71H160.156L169.751 146.043L160.156 129.376Z" stroke="#FDEBDD" stroke-opacity="0.1" stroke-miterlimit="10"/>
<path d="M160.156 -4.10425H140.967L131.374 12.5626L140.967 29.2294H160.156L169.751 12.5626L160.156 -4.10425Z" stroke="#FDEBDD" stroke-opacity="0.1" stroke-miterlimit="10"/>
<path d="M160.156 262.857H140.967L131.374 279.524L140.967 296.191H160.156L169.751 279.524L160.156 262.857Z" stroke="#FDEBDD" stroke-opacity="0.1" stroke-miterlimit="10"/>
<path d="M160.156 196.19H140.967L131.374 212.857L140.967 229.523H160.156L169.751 212.857L160.156 196.19Z" stroke="#FDEBDD" stroke-opacity="0.1" stroke-miterlimit="10"/>
<path d="M160.156 62.7092H140.967L131.374 79.376L140.967 96.0428H160.156L169.751 79.376L160.156 62.7092Z" stroke="#FDEBDD" stroke-opacity="0.1" stroke-miterlimit="10"/>
<path d="M160.156 329.67H140.967L131.374 346.337L140.967 363.004H160.156L169.751 346.337L160.156 329.67Z" stroke="#FDEBDD" stroke-opacity="0.1" stroke-miterlimit="10"/>
<path d="M160.156 162.71H140.967L131.374 179.45L140.967 196.19H160.156L169.751 179.45L160.156 162.71Z" stroke="#FDEBDD" stroke-opacity="0.1" stroke-miterlimit="10"/>
<path d="M160.156 29.2294H140.967L131.374 45.9693L140.967 62.7092H160.156L169.751 45.9693L160.156 29.2294Z" stroke="#FDEBDD" stroke-opacity="0.1" stroke-miterlimit="10"/>
<path d="M160.156 296.191H140.967L131.374 312.931L140.967 329.67H160.156L169.751 312.931L160.156 296.191Z" stroke="#FDEBDD" stroke-opacity="0.1" stroke-miterlimit="10"/>
<path d="M160.156 229.523H140.967L131.374 246.19L140.967 262.857H160.156L169.751 246.19L160.156 229.523Z" stroke="#FDEBDD" stroke-opacity="0.1" stroke-miterlimit="10"/>
<path d="M160.156 96.0428H140.967L131.374 112.71L140.967 129.376H160.156L169.751 112.71L160.156 96.0428Z" stroke="#FDEBDD" stroke-opacity="0.1" stroke-miterlimit="10"/>
</g>
<defs>
<clipPath id="clip0_186_316">
<rect width="731" height="731" fill="white" transform="translate(-138 -137)"/>
</clipPath>
</defs>
</svg>
