<svg width="400" height="400" viewBox="0 0 400 400" fill="none" xmlns="http://www.w3.org/2000/svg">
  <path d="M0 0H400V400H0V0Z" fill="url(#paint0_radial_0_1)" fill-opacity="0.1"/>
  <defs>
    <radialGradient id="paint0_radial_0_1" cx="0" cy="0" r="1" gradientUnits="userSpaceOnUse" gradientTransform="translate(200 200) rotate(90) scale(200)">
      <stop offset="0" stop-color="white" stop-opacity="0.1"/>
      <stop offset="1" stop-color="white" stop-opacity="0"/>
    </radialGradient>
  </defs>
  <path fill-rule="evenodd" clip-rule="evenodd" d="M0 80C44.1828 80 80 44.1828 80 0H120C120 66.2742 66.2742 120 0 120V80ZM400 80C355.817 80 320 44.1828 320 0H280C280 66.2742 333.726 120 400 120V80ZM80 400C80 355.817 44.1828 320 0 320V280C66.2742 280 120 333.726 120 400H80ZM320 400C320 355.817 355.817 320 400 320V280C333.726 280 280 333.726 280 400H320Z" fill="white" fill-opacity="0.05"/>
  <path d="M0 40C22.0914 40 40 22.0914 40 0H60C60 33.1371 33.1371 60 0 60V40ZM400 40C377.909 40 360 22.0914 360 0H340C340 33.1371 366.863 60 400 60V40ZM40 400C40 377.909 22.0914 360 0 360V340C33.1371 340 60 366.863 60 400H40ZM360 400C360 377.909 377.909 360 400 360V340C366.863 340 340 366.863 340 400H360Z" fill="white" fill-opacity="0.05"/>
</svg>